<svg width="49" height="49" viewBox="0 0 49 49" fill="none" xmlns="http://www.w3.org/2000/svg">
<path d="M24.8788 10.5706C22.4754 10.5737 20.1712 11.5424 18.4718 13.2643C16.7723 14.9862 15.8162 17.3206 15.8131 19.7557H20.422C20.422 17.2645 22.4223 15.2402 24.8788 15.2402C27.3353 15.2402 29.3356 17.2645 29.3356 19.7557C29.3356 21.152 28.2272 22.1653 26.5334 23.5521C25.9801 23.9913 25.4486 24.4581 24.941 24.9507C22.6412 27.2785 22.5744 29.751 22.5744 30.0266V31.5839H27.1833L27.1809 30.1059C27.1833 30.0686 27.257 29.2047 28.1972 28.2544C28.5429 27.9042 28.9784 27.554 29.4301 27.1851C31.2253 25.7118 33.9422 23.4868 33.9422 19.7557C33.9404 17.3207 32.985 14.9858 31.2857 13.2638C29.5865 11.5417 27.2822 10.5731 24.8788 10.5706ZM22.5744 33.9187H27.1833V38.5883H22.5744V33.9187Z" fill="#002433"/>
<path d="M24.8776 0.682007C11.7006 0.682007 0.980225 11.4024 0.980225 24.5794C0.980225 37.7565 11.7006 48.4769 24.8776 48.4769C38.0547 48.4769 48.7751 37.7565 48.7751 24.5794C48.7751 11.4024 38.0547 0.682007 24.8776 0.682007ZM24.8776 43.6974C14.3365 43.6974 5.75971 35.1206 5.75971 24.5794C5.75971 14.0383 14.3365 5.46149 24.8776 5.46149C35.4188 5.46149 43.9956 14.0383 43.9956 24.5794C43.9956 35.1206 35.4188 43.6974 24.8776 43.6974Z" fill="#002433"/>
</svg>
