<svg width="47" height="51" viewBox="0 0 47 51" fill="none" xmlns="http://www.w3.org/2000/svg">
<path d="M46.3702 32.0396L42.8178 28.9141C42.9859 27.8537 43.0727 26.771 43.0727 25.6882C43.0727 24.6055 42.9859 23.5227 42.8178 22.4623L46.3702 19.3369C46.6382 19.1008 46.83 18.7864 46.9201 18.4355C47.0102 18.0846 46.9943 17.7137 46.8746 17.3723L46.8258 17.2272C45.8478 14.4144 44.3834 11.807 42.5032 9.5308L42.4056 9.41359C42.1775 9.13762 41.8735 8.93923 41.5336 8.84458C41.1938 8.74993 40.8341 8.76346 40.5019 8.88338L36.0924 10.4963C34.4654 9.12337 32.6484 8.04063 30.6851 7.28159L29.8336 2.53762C29.7693 2.18066 29.601 1.85227 29.3511 1.59606C29.1012 1.33986 28.7814 1.16798 28.4343 1.10326L28.2878 1.07536C25.4621 0.550728 22.49 0.550728 19.6642 1.07536L19.5178 1.10326C19.1707 1.16798 18.8509 1.33986 18.601 1.59606C18.351 1.85227 18.1827 2.18066 18.1185 2.53762L17.2616 7.30392C15.3139 8.06311 13.5001 9.14528 11.8922 10.5075L7.4502 8.88338C7.11809 8.76251 6.7581 8.74849 6.41806 8.8432C6.07802 8.9379 5.77404 9.13685 5.5465 9.41359L5.44888 9.5308C3.57092 11.8086 2.1067 14.4156 1.12624 17.2272L1.07743 17.3723C0.833362 18.07 1.03404 18.8513 1.58182 19.3369L5.1777 22.4958C5.00956 23.5451 4.92821 24.6166 4.92821 25.6826C4.92821 26.7542 5.00956 27.8258 5.1777 28.8695L1.58182 32.0284C1.31387 32.2645 1.1221 32.5788 1.032 32.9298C0.941897 33.2807 0.957742 33.6515 1.07743 33.993L1.12624 34.1381C2.10792 36.951 3.56145 39.5462 5.44888 41.8345L5.5465 41.9517C5.77459 42.2277 6.07859 42.4261 6.41842 42.5207C6.75826 42.6154 7.11799 42.6018 7.4502 42.4819L11.8922 40.8578C13.5084 42.2252 15.3145 43.3079 17.2616 44.0614L18.1185 48.8277C18.1827 49.1846 18.351 49.513 18.601 49.7692C18.8509 50.0254 19.1707 50.1973 19.5178 50.262L19.6642 50.2899C22.5159 50.8174 25.4361 50.8174 28.2878 50.2899L28.4343 50.262C28.7814 50.1973 29.1012 50.0254 29.3511 49.7692C29.601 49.513 29.7693 49.1846 29.8336 48.8277L30.6851 44.0837C32.6476 43.3266 34.4748 42.2404 36.0924 40.8689L40.5019 42.4819C40.834 42.6028 41.194 42.6168 41.534 42.5221C41.874 42.4274 42.178 42.2284 42.4056 41.9517L42.5032 41.8345C44.3906 39.5406 45.8441 36.951 46.8258 34.1381L46.8746 33.993C47.1187 33.3065 46.918 32.5251 46.3702 32.0396ZM38.967 23.1209C39.1026 23.9636 39.1731 24.8287 39.1731 25.6938C39.1731 26.5589 39.1026 27.424 38.967 28.2667L38.609 30.5048L42.6605 34.0711C42.0463 35.5272 41.271 36.9055 40.35 38.1788L35.3169 36.3426L33.6138 37.7826C32.3176 38.8765 30.8749 39.736 29.3129 40.3387L27.2465 41.1368L26.2757 46.5506C24.7439 46.7292 23.1974 46.7292 21.6656 46.5506L20.6947 41.1257L18.6446 40.3164C17.0989 39.7137 15.6616 38.8542 14.3762 37.7658L12.6732 36.3203L7.60749 38.1733C6.68547 36.8952 5.91531 35.5166 5.29702 34.0655L9.39187 30.4657L9.03933 28.2332C8.90916 27.4016 8.83865 26.5421 8.83865 25.6938C8.83865 24.8399 8.90374 23.986 9.03933 23.1544L9.39187 20.9219L5.29702 17.3221C5.90989 15.8654 6.68547 14.4924 7.60749 13.2144L12.6732 15.0673L14.3762 13.6218C15.6616 12.5335 17.0989 11.674 18.6446 11.0712L20.7002 10.2731L21.671 4.84821C23.195 4.66962 24.7516 4.66962 26.2811 4.84821L27.2519 10.2619L29.3183 11.06C30.8749 11.6628 32.323 12.5223 33.6193 13.6162L35.3223 15.0561L40.3554 13.2199C41.2774 14.498 42.0476 15.8766 42.6659 17.3277L38.6144 20.894L38.967 23.1209ZM23.9815 15.3129C18.7097 15.3129 14.4359 19.7108 14.4359 25.1357C14.4359 30.5606 18.7097 34.9585 23.9815 34.9585C29.2532 34.9585 33.5271 30.5606 33.5271 25.1357C33.5271 19.7108 29.2532 15.3129 23.9815 15.3129ZM28.277 29.556C27.7136 30.1374 27.044 30.5984 26.3068 30.9126C25.5696 31.2268 24.7794 31.3879 23.9815 31.3866C22.3598 31.3866 20.8357 30.7336 19.6859 29.556C19.1209 28.9762 18.6729 28.2872 18.3676 27.5286C18.0623 26.77 17.9057 25.9568 17.907 25.1357C17.907 23.4669 18.5415 21.8986 19.6859 20.7154C20.8357 19.5322 22.3598 18.8848 23.9815 18.8848C25.6031 18.8848 27.1272 19.5322 28.277 20.7154C28.842 21.2952 29.29 21.9842 29.5953 22.7428C29.9006 23.5014 30.0572 24.3146 30.0559 25.1357C30.0559 26.8045 29.4214 28.3728 28.277 29.556Z" fill="#002433"/>
</svg>
