<svg width="23" height="12" viewBox="0 0 23 12" fill="none" xmlns="http://www.w3.org/2000/svg">
<path fill-rule="evenodd" clip-rule="evenodd" d="M0.741077 0.251753C0.819695 0.171951 0.913091 0.108636 1.01591 0.0654361C1.11874 0.0222361 1.22897 0 1.34029 0C1.45161 0 1.56184 0.0222361 1.66467 0.0654361C1.76749 0.108636 1.86088 0.171951 1.9395 0.251753L11.4964 9.92985L21.0534 0.251753C21.132 0.17208 21.2255 0.108879 21.3283 0.0657606C21.4311 0.0226417 21.5413 0.000448657 21.6526 0.000448657C21.7638 0.000448657 21.874 0.0226417 21.9769 0.0657606C22.0797 0.108879 22.1731 0.17208 22.2518 0.251753C22.3305 0.331426 22.3929 0.426012 22.4355 0.53011C22.4781 0.634208 22.5 0.745781 22.5 0.858456C22.5 0.971131 22.4781 1.0827 22.4355 1.1868C22.3929 1.2909 22.3305 1.38548 22.2518 1.46516L12.0956 11.7482C12.017 11.828 11.9236 11.8914 11.8208 11.9346C11.718 11.9778 11.6077 12 11.4964 12C11.3851 12 11.2749 11.9778 11.1721 11.9346C11.0692 11.8914 10.9758 11.828 10.8972 11.7482L0.741077 1.46516C0.66226 1.38556 0.599727 1.29099 0.557061 1.18689C0.514394 1.08278 0.492432 0.971171 0.492432 0.858456C0.492432 0.74574 0.514394 0.634132 0.557061 0.530024C0.599727 0.425917 0.66226 0.331354 0.741077 0.251753Z" fill="#002433"/>
</svg>
