<svg width="23" height="12" viewBox="0 0 23 12" fill="none" xmlns="http://www.w3.org/2000/svg">
<path fill-rule="evenodd" clip-rule="evenodd" d="M1.24108 0.251753C1.3197 0.171951 1.41309 0.108636 1.51591 0.0654361C1.61874 0.0222361 1.72897 0 1.84029 0C1.95161 0 2.06184 0.0222361 2.16467 0.0654361C2.26749 0.108636 2.36088 0.171951 2.4395 0.251753L11.9964 9.92985L21.5534 0.251753C21.632 0.17208 21.7255 0.108879 21.8283 0.0657606C21.9311 0.0226417 22.0413 0.000448657 22.1526 0.000448657C22.2638 0.000448657 22.374 0.0226417 22.4769 0.0657606C22.5797 0.108879 22.6731 0.17208 22.7518 0.251753C22.8305 0.331426 22.8929 0.426012 22.9355 0.53011C22.9781 0.634208 23 0.745781 23 0.858456C23 0.971131 22.9781 1.0827 22.9355 1.1868C22.8929 1.2909 22.8305 1.38548 22.7518 1.46516L12.5956 11.7482C12.517 11.828 12.4236 11.8914 12.3208 11.9346C12.218 11.9778 12.1077 12 11.9964 12C11.8851 12 11.7749 11.9778 11.6721 11.9346C11.5692 11.8914 11.4758 11.828 11.3972 11.7482L1.24108 1.46516C1.16226 1.38556 1.09973 1.29099 1.05706 1.18689C1.01439 1.08278 0.992432 0.971171 0.992432 0.858456C0.992432 0.74574 1.01439 0.634132 1.05706 0.530024C1.09973 0.425917 1.16226 0.331354 1.24108 0.251753Z" fill="#002433"/>
</svg>
